:SAMPLES-PER-SECOND 30
:FULLY-SPECIFIED
:DEGREES
133
root  -25.0825 39.3187 28.4568 -5.67039 6.2309 -2.19386
RightUpLeg  -17.5326 -10.8111 0.440854
RightLeg  17.4616 -2.41833 1.766
RightFoot  6.84726 0.91561 -5.4198
RightToes  1.16414e-010 0 -3.6325e-017
Spine  4.15279 -2.09798 8.14823
Spine1  7.02082 -2.00446 1.6728
HEad  -13.9031 3.64711 -4.44371
LeftShoulder1  8.86143 -12.2623 -49.0654
LeftArm  2.57404 14.1876 -29.3466
LeftForeArm  27.8195 -24.575 -3.80984
LeftHand  -0.244104 0.0205437 5.32207
RightShoulder  5.71394 9.16025 39.0311
RightArm  5.65066 -13.2923 33.0819
RightForeArm  -8.24843 20.623 5.64253
RightHand  -1.35819 3.5863 -17.6973
LeftUpLeg  -13.3008 8.01602 4.39781
LeftLeg  67.0459 2.40027 6.9677
LeftFoot  -0.805555 0.344374 -3.72446
LeftToes  2.00086e-010 -2.05915e-011 4.26721e-011
134
root  -25.1739 39.64 29.2694 -5.17114 6.08574 -1.44632
RightUpLeg  -15.7487 -9.75441 -0.600478
RightLeg  16.0765 -3.44908 2.22886
RightFoot  5.93267 0.89522 -5.61738
RightToes  1.16414e-010 0 -3.6325e-017
Spine  4.55455 -1.37299 8.1679
Spine1  6.65028 -1.05118 0.610226
HEad  -14.3586 2.46438 -4.15974
LeftShoulder1  8.92254 -12.3248 -49.2088
LeftArm  2.85234 16.595 -29.9035
LeftForeArm  26.5797 -21.8776 -3.68841
LeftHand  -0.244104 0.0205437 5.32207
RightShoulder  5.68052 9.15054 38.8115
RightArm  6.9399 -10.889 33.9566
RightForeArm  -7.82848 21.4634 5.46706
RightHand  -1.44004 3.92698 -18.071
LeftUpLeg  -17.5898 9.39169 3.07234
LeftLeg  64.8525 2.46713 6.41492
LeftFoot  -2.77274 0.339259 -4.29723
LeftToes  2.00086e-010 -2.05915e-011 4.26721e-011
135
root  -25.2421 39.9503 30.023 -4.76233 6.14415 -0.773972
RightUpLeg  -13.9525 -8.97548 -1.63499
RightLeg  14.4198 -4.14698 2.83877
RightFoot  5.68087 0.916558 -5.8552
RightToes  1.16414e-010 0 -3.6325e-017
Spine  4.80041 -0.873506 8.15695
Spine1  6.43946 -0.346131 -0.530583
HEad  -14.9236 2.33525 -3.77643
LeftShoulder1  8.97249 -12.375 -49.3282
LeftArm  1.15028 18.9981 -29.9704
LeftForeArm  25.5182 -19.2337 -4.33665
LeftHand  -0.244104 0.0205437 5.32207
RightShoulder  5.63656 9.05916 38.7896
RightArm  7.65564 -9.06774 34.7585
RightForeArm  -7.69622 21.895 5.40768
RightHand  -1.45137 3.91918 -18.2221
LeftUpLeg  -20.2663 10.401 1.7502
LeftLeg  58.9588 3.05539 6.01398
LeftFoot  -4.10878 0.302291 -4.38504
LeftToes  2.00086e-010 -2.05915e-011 4.26721e-011
136
root  -25.2833 40.2414 30.7345 -4.50562 5.91719 -0.0681152
RightUpLeg  -12.1087 -8.58637 -2.47393
RightLeg  12.7568 -4.10215 3.2393
RightFoot  5.39769 0.907246 -5.90541
RightToes  1.16414e-010 0 -3.6325e-017
Spine  4.89544 -0.431573 8.0668
Spine1  6.56421 0.333012 -1.85044
HEad  -15.4383 2.35589 -3.45815
LeftShoulder1  9.03217 -12.3969 -49.5874
LeftArm  -1.09679 21.0688 -29.5978
LeftForeArm  25.3663 -16.6056 -5.14319
LeftHand  -0.244104 0.0205437 5.32207
RightShoulder  5.71144 9.10994 39.1828
RightArm  8.46577 -7.9126 35.1184
RightForeArm  -8.23737 22.1434 5.41544
RightHand  -1.47099 3.92113 -18.4563
LeftUpLeg  -20.7323 11.1413 0.612677
LeftLeg  49.5423 3.76194 5.17538
LeftFoot  -5.87556 0.244794 -4.40145
LeftToes  2.00086e-010 -2.05915e-011 4.26721e-011
137
root  -25.299 40.4431 31.4321 -4.51315 5.26685 0.515335
RightUpLeg  -10.4593 -8.36884 -2.91317
RightLeg  11.933 -3.58155 3.21896
RightFoot  4.48396 0.843794 -5.84118
RightToes  1.16414e-010 0 -3.6325e-017
Spine  4.80865 0.000845858 7.91065
Spine1  7.14144 0.982384 -2.86085
HEad  -15.541 1.86383 -3.41718
LeftShoulder1  9.08525 -12.4188 -49.8094
LeftArm  -3.40648 22.8206 -29.3068
LeftForeArm  26.497 -13.9667 -5.79105
LeftHand  -0.244104 0.0205437 5.32207
RightShoulder  5.90583 9.34474 39.8356
RightArm  9.4217 -7.3247 35.1658
RightForeArm  -8.59197 21.9145 5.47018
RightHand  -1.51031 4.0915 -18.6097
LeftUpLeg  -19.0633 10.901 0.0285627
LeftLeg  38.0408 3.64493 3.44966
LeftFoot  -6.88249 0.227674 -4.77137
LeftToes  2.00086e-010 -2.05915e-011 4.26721e-011
138
root  -25.2677 40.5271 32.1298 -4.91881 4.25781 0.620728
RightUpLeg  -9.08963 -8.28502 -2.83008
RightLeg  12.2859 -2.63874 3.0689
RightFoot  3.13478 0.765375 -5.84919
RightToes  1.16414e-010 0 -3.6325e-017
Spine  4.53139 0.381927 8.23291
Spine1  8.10107 1.56925 -3.5349
HEad  -15.1832 1.546 -3.45389
LeftShoulder1  9.1326 -12.4879 -49.8529
LeftArm  -5.59808 24.3957 -29.417
LeftForeArm  27.7738 -11.4202 -6.11586
LeftHand  -0.244104 0.0205437 5.32207
RightShoulder  6.11592 9.57555 40.5888
RightArm  9.94649 -7.18479 35.1031
RightForeArm  -8.3675 21.0121 5.63841
RightHand  -1.49083 4.07925 -18.3971
LeftUpLeg  -15.847 9.30262 0.25675
LeftLeg  26.9129 2.41414 1.67576
LeftFoot  -6.06962 0.265939 -4.97443
LeftToes  2.00086e-010 -2.05915e-011 4.26721e-011
139
root  -25.1711 40.5408 32.808 -5.59308 2.79335 0.0516052
RightUpLeg  -7.76823 -8.32427 -2.17632
RightLeg  13.0111 -1.19356 3.09387
RightFoot  1.8267 0.688078 -5.84279
RightToes  1.16414e-010 0 -3.6325e-017
Spine  4.14445 0.656138 9.43749
Spine1  9.13322 2.11383 -4.29983
HEad  -14.3356 1.63685 -3.66241
LeftShoulder1  9.1484 -12.5181 -49.8456
LeftArm  -7.46442 26.015 -29.799
LeftForeArm  27.7082 -9.4319 -6.01308
LeftHand  -0.244104 0.0205437 5.32207
RightShoulder  6.33429 9.72565 41.6397
RightArm  9.77433 -7.40023 34.5267
RightForeArm  -7.52958 19.7209 5.98298
RightHand  -1.38811 3.68673 -17.8771
LeftUpLeg  -12.1647 7.56671 1.15439
LeftLeg  18.5314 0.8279 0.602715
LeftFoot  -3.69439 0.30322 -4.25335
LeftToes  2.00086e-010 -2.05915e-011 4.26721e-011
140
root  -25.045 40.556 33.4457 -6.11073 1.11993 -0.833313
RightUpLeg  -6.39661 -8.24745 -1.22302
RightLeg  13.1863 0.239939 3.11098
RightFoot  0.791075 0.606966 -5.65078
RightToes  1.16414e-010 0 -3.6325e-017
Spine  3.67145 0.769692 10.5688
Spine1  9.92714 2.38398 -4.78804
HEad  -13.4662 2.40677 -4.14724
LeftShoulder1  9.02612 -12.3064 -49.8375
LeftArm  -9.14092 27.5909 -30.357
LeftForeArm  26.2039 -8.21265 -5.58415
LeftHand  -0.244104 0.0205437 5.32207
RightShoulder  6.63069 9.89753 43.1234
RightArm  9.06946 -7.91024 32.9153
RightForeArm  -5.64359 18.4043 6.37673
RightHand  -1.30682 3.41288 -17.3661
LeftUpLeg  -9.2208 6.81445 2.18637
LeftLeg  13.9893 0.214836 0.12755
LeftFoot  -0.935737 0.210969 -2.27218
LeftToes  2.00086e-010 -2.05915e-011 4.26721e-011
141
root  -24.9586 40.6145 34.0328 -6.21037 0.0450287 -1.35229
RightUpLeg  -5.18255 -7.84446 -0.597068
RightLeg  12.7837 0.815472 2.86989
RightFoot  0.0457743 0.538031 -5.38594
RightToes  1.16414e-010 0 -3.6325e-017
Spine  3.02032 0.729257 10.0517
Spine1  10.4646 2.06034 -3.96837
HEad  -12.9939 3.44052 -4.80836
LeftShoulder1  8.62903 -11.7499 -49.3785
LeftArm  -10.818 28.4441 -31.2144
LeftForeArm  24.0751 -7.18023 -5.02266
LeftHand  -0.244104 0.0205437 5.32207
RightShoulder  6.90934 10.0683 44.4422
RightArm  7.04245 -8.77016 30.618
RightForeArm  -2.6146 16.9674 6.7155
RightHand  -1.33302 3.74537 -17.0847
LeftUpLeg  -7.45269 6.25957 2.79203
LeftLeg  12.38 1.25101 -0.0411128
LeftFoot  0.731343 0.0060905 -0.074183
LeftToes  2.00086e-010 -2.05915e-011 4.26721e-011
142
root  -24.9349 40.7244 34.5592 -6.00769 -0.0392609 -1.17323
RightUpLeg  -4.21215 -7.34284 -0.735936
RightLeg  12.1313 0.518177 2.55191
RightFoot  -0.422853 0.496195 -5.21453
RightToes  1.16414e-010 0 -3.6325e-017
Spine  2.24244 0.649092 7.77806
Spine1  10.7862 1.35711 -1.99071
HEad  -12.6917 3.93829 -5.241
LeftShoulder1  7.89305 -10.914 -47.7622
LeftArm  -12.421 28.0795 -32.0832
LeftForeArm  21.7795 -5.79165 -4.42771
LeftHand  -0.244104 0.0205437 5.32207
RightShoulder  6.90135 10.0079 44.5938
RightArm  2.49793 -10.1759 28.4669
RightForeArm  0.045786 15.1428 6.9592
RightHand  -1.41034 4.32892 -17.0048
LeftUpLeg  -6.31917 5.69191 2.64579
LeftLeg  11.5387 2.34644 -0.026271
LeftFoot  0.938727 -0.0989639 0.870439
LeftToes  2.00086e-010 -2.05915e-011 4.26721e-011
143
root  -24.9169 40.8635 35.0339 -5.61945 0.201782 -0.65683
RightUpLeg  -3.34021 -7.03125 -1.36646
RightLeg  11.1545 0.175211 2.46281
RightFoot  -0.645664 0.46422 -4.99887
RightToes  1.16414e-010 0 -3.6325e-017
Spine  1.45232 0.667249 5.57203
Spine1  10.7199 0.931009 -0.534229
HEad  -12.0705 3.81922 -5.00133
LeftShoulder1  6.87945 -9.86607 -44.7993
LeftArm  -13.8915 27.0185 -32.0262
LeftForeArm  19.4812 -4.65632 -3.79773
LeftHand  -0.244104 0.0205437 5.32207
RightShoulder  6.46416 9.55887 43.1261
RightArm  -3.63155 -12.142 26.4752
RightForeArm  0.551765 13.1054 6.93623
RightHand  -1.42605 4.50172 -16.9005
LeftUpLeg  -5.08507 5.16191 2.37354
LeftLeg  9.86564 2.83206 -0.510101
LeftFoot  0.702308 -0.0722039 0.645285
LeftToes  2.00086e-010 -2.05915e-011 4.26721e-011
144
root  -24.8435 41.0024 35.4863 -5.01152 -0.0193634 -0.348083
RightUpLeg  -2.44563 -6.73861 -1.90503
RightLeg  9.54612 0.217691 2.64486
RightFoot  -0.598197 0.42875 -4.59832
RightToes  1.16414e-010 0 -3.6325e-017
Spine  0.626216 0.792558 4.91533
Spine1  10.1081 1.04127 -0.650378
HEad  -10.8907 3.45154 -4.66317
LeftShoulder1  5.77538 -8.64234 -41.1908
LeftArm  -15.1751 26.2121 -30.1089
LeftForeArm  17.5454 -4.9958 -3.20777
LeftHand  -0.244104 0.0205437 5.32207
RightShoulder  5.71561 8.78422 40.3486
RightArm  -8.70909 -14.1761 23.6904
RightForeArm  -0.507722 11.2405 6.57899
RightHand  -1.36613 4.23788 -16.6364
LeftUpLeg  -3.64499 4.98083 2.56464
LeftLeg  7.31272 3.16122 -1.69643
LeftFoot  0.995027 -0.0530332 0.433405
LeftToes  2.00086e-010 -2.05915e-011 4.26721e-011
145
root  -24.7265 41.1242 35.9278 -4.21759 -0.580826 -0.30162
RightUpLeg  -1.62793 -6.38152 -2.18601
RightLeg  7.56349 0.469638 2.86807
RightFoot  -0.32913 0.400613 -4.1742
RightToes  1.16414e-010 0 -3.6325e-017
Spine  -0.345295 0.890747 5.20567
Spine1  9.33204 1.25826 -1.42741
HEad  -9.6618 3.33363 -4.70919
LeftShoulder1  4.78103 -7.35567 -37.8453
LeftArm  -16.1601 25.7582 -26.2338
LeftForeArm  16.2195 -7.00305 -2.78167
LeftHand  -0.244104 0.0205437 5.32207
RightShoulder  4.80648 7.79556 36.531
RightArm  -11.5718 -15.4676 19.7432
RightForeArm  -1.23867 9.58254 6.04082
RightHand  -1.30646 3.96414 -16.3778
LeftUpLeg  -2.40426 4.76573 2.95611
LeftLeg  4.799 3.98991 -2.92349
LeftFoot  1.60356 -0.0942967 0.745384
LeftToes  2.00086e-010 -2.05915e-011 4.26721e-011
146
root  -24.62 41.2149 36.3326 -3.44548 -0.920227 -0.22522
RightUpLeg  -1.099 -6.18274 -2.4226
RightLeg  6.06689 0.69055 2.92334
RightFoot  -0.154419 0.384628 -3.93328
RightToes  1.16414e-010 0 -3.6325e-017
Spine  -1.31038 0.857371 5.17311
Spine1  8.81094 1.20075 -1.66224
HEad  -8.76915 3.43318 -5.14854
LeftShoulder1  3.9941 -6.22675 -34.9349
LeftArm  -17.062 25.0923 -21.2068
LeftForeArm  15.3972 -9.64649 -2.4475
LeftHand  -0.244104 0.0205437 5.32207
RightShoulder  3.79748 6.56237 31.759
RightArm  -13.0769 -15.7096 15.427
RightForeArm  -1.83402 8.06272 5.44548
RightHand  -1.29114 3.88881 -16.3166
LeftUpLeg  -1.61876 4.55867 2.95615
LeftLeg  3.00532 4.63613 -3.50683
LeftFoot  1.86009 -0.134014 1.06173
LeftToes  2.00086e-010 -2.05915e-011 4.26721e-011
147
root  -24.5456 41.2684 36.67 -2.87825 -0.931763 -0.0687256
RightUpLeg  -0.85845 -6.15747 -2.65547
RightLeg  5.42369 0.757499 2.81503
RightFoot  -0.280369 0.370555 -3.84244
RightToes  1.16414e-010 0 -3.6325e-017
Spine  -1.86797 0.690056 4.75943
Spine1  8.37086 0.971161 -1.5622
HEad  -8.23688 3.6941 -5.29395
LeftShoulder1  3.34202 -5.31683 -31.7789
LeftArm  -18.1389 24.0405 -16.0376
LeftForeArm  15.0758 -12.1057 -2.13611
LeftHand  -0.244104 0.0205437 5.32207
RightShoulder  2.80071 5.0927 26.5111
RightArm  -14.3318 -15.2033 11.4914
RightForeArm  -3.77303 6.65078 4.91536
RightHand  -1.29985 3.86536 -16.4635
LeftUpLeg  -1.11888 4.38665 2.66149
LeftLeg  1.84627 4.73983 -3.60995
LeftFoot  1.817 -0.134907 1.07377
LeftToes  2.00086e-010 -2.05915e-011 4.26721e-011
